<?xml version="1.0" encoding="UTF-8" standalone="no"?>
<!DOCTYPE svg PUBLIC "-//W3C//DTD SVG 1.1//EN"
 "http://www.w3.org/Graphics/SVG/1.1/DTD/svg11.dtd">
<!-- Generated by graphviz version 2.36.0 (20140111.2315)
 -->
<!-- Title: HMM Pages: 1 -->
<svg width="278pt" height="181pt"
 viewBox="0.00 0.00 278.00 181.00" xmlns="http://www.w3.org/2000/svg" xmlns:xlink="http://www.w3.org/1999/xlink">
<g id="graph0" class="graph" transform="scale(1 1) rotate(0) translate(4 177)">
<title>HMM</title>
<polygon fill="white" stroke="none" points="-4,4 -4,-177 274,-177 274,4 -4,4"/>
<!-- Cola Pref. -->
<g id="node1" class="node"><title>Cola Pref.</title>
<ellipse fill="none" stroke="black" cx="54" cy="-54" rx="54" ry="54"/>
<text text-anchor="middle" x="54" y="-50.3" font-family="Times,serif" font-size="14.00">Cola Pref.</text>
</g>
<!-- Cola Pref.&#45;&gt;Cola Pref. -->
<g id="edge2" class="edge"><title>Cola Pref.&#45;&gt;Cola Pref.</title>
<path fill="none" stroke="black" d="M39.5495,-106.173C37.2691,-133.396 42.0859,-158 54,-158 64.4248,-158 69.4158,-139.163 68.9729,-116.216"/>
<polygon fill="black" stroke="black" points="72.4654,-115.978 68.4505,-106.173 65.4748,-116.342 72.4654,-115.978"/>
<text text-anchor="middle" x="54" y="-161.8" font-family="Times,serif" font-size="14.00">0.7</text>
</g>
<!-- Iced Tea Pref. -->
<g id="node2" class="node"><title>Iced Tea Pref.</title>
<ellipse fill="none" stroke="black" cx="216" cy="-54" rx="54" ry="54"/>
<text text-anchor="middle" x="216" y="-50.3" font-family="Times,serif" font-size="14.00">Iced Tea Pref.</text>
</g>
<!-- Cola Pref.&#45;&gt;Iced Tea Pref. -->
<g id="edge1" class="edge"><title>Cola Pref.&#45;&gt;Iced Tea Pref.</title>
<path fill="none" stroke="black" d="M108.278,-54C122.176,-54 137.291,-54 151.656,-54"/>
<polygon fill="black" stroke="black" points="151.955,-57.5001 161.955,-54 151.955,-50.5001 151.955,-57.5001"/>
<text text-anchor="middle" x="135" y="-57.8" font-family="Times,serif" font-size="14.00">0.3</text>
</g>
<!-- Iced Tea Pref.&#45;&gt;Cola Pref. -->
<g id="edge4" class="edge"><title>Iced Tea Pref.&#45;&gt;Cola Pref.</title>
<path fill="none" stroke="black" d="M166.006,-32.7542C158.747,-30.3771 151.263,-28.3345 144,-27 133.77,-25.1206 123.054,-25.8964 112.743,-28.1102"/>
<polygon fill="black" stroke="black" points="111.813,-24.7356 103.011,-30.6335 113.57,-31.5115 111.813,-24.7356"/>
<text text-anchor="middle" x="135" y="-30.8" font-family="Times,serif" font-size="14.00">0.5</text>
</g>
<!-- Iced Tea Pref.&#45;&gt;Iced Tea Pref. -->
<g id="edge3" class="edge"><title>Iced Tea Pref.&#45;&gt;Iced Tea Pref.</title>
<path fill="none" stroke="black" d="M201.55,-106.173C199.269,-133.396 204.086,-158 216,-158 226.425,-158 231.416,-139.163 230.973,-116.216"/>
<polygon fill="black" stroke="black" points="234.465,-115.978 230.45,-106.173 227.475,-116.342 234.465,-115.978"/>
<text text-anchor="middle" x="216" y="-161.8" font-family="Times,serif" font-size="14.00">0.5</text>
</g>
</g>
</svg>
