<?xml version="1.0" encoding="UTF-8" standalone="no"?>
<!DOCTYPE svg PUBLIC "-//W3C//DTD SVG 1.1//EN"
 "http://www.w3.org/Graphics/SVG/1.1/DTD/svg11.dtd">
<!-- Generated by graphviz version 2.36.0 (20140111.2315)
 -->
<!-- Title: HMM Pages: 1 -->
<svg width="432pt" height="204pt"
 viewBox="0.00 0.00 432.00 204.00" xmlns="http://www.w3.org/2000/svg" xmlns:xlink="http://www.w3.org/1999/xlink">
<g id="graph0" class="graph" transform="scale(1 1) rotate(0) translate(4 200)">
<title>HMM</title>
<polygon fill="white" stroke="none" points="-4,4 -4,-200 428,-200 428,4 -4,4"/>
<!-- Cola Pref. -->
<g id="node1" class="node"><title>Cola Pref.</title>
<ellipse fill="none" stroke="black" cx="212" cy="-142" rx="54" ry="54"/>
<text text-anchor="middle" x="212" y="-138.3" font-family="Times,serif" font-size="14.00">Cola Pref.</text>
</g>
<!-- cola -->
<g id="node2" class="node"><title>cola</title>
<text text-anchor="middle" x="54" y="-14.3" font-family="Times,serif" font-size="14.00">cola</text>
</g>
<!-- Cola Pref.&#45;&gt;cola -->
<g id="edge1" class="edge"><title>Cola Pref.&#45;&gt;cola</title>
<path fill="none" stroke="black" d="M169.659,-108.306C142.675,-87.4708 108.36,-60.9742 84.1371,-42.2704"/>
<polygon fill="black" stroke="black" points="86.0727,-39.3431 76.0186,-36.0017 81.7946,-44.8836 86.0727,-39.3431"/>
<text text-anchor="middle" x="131.5" y="-58.3" font-family="Times,serif" font-size="14.00"> 0.6 </text>
</g>
<!-- iced tea -->
<g id="node3" class="node"><title>iced tea</title>
<text text-anchor="middle" x="212" y="-14.3" font-family="Times,serif" font-size="14.00">iced tea</text>
</g>
<!-- Cola Pref.&#45;&gt;iced tea -->
<g id="edge2" class="edge"><title>Cola Pref.&#45;&gt;iced tea</title>
<path fill="none" stroke="black" d="M212,-87.8439C212,-73.4414 212,-58.4457 212,-46.1405"/>
<polygon fill="black" stroke="black" points="215.5,-46.1021 212,-36.1021 208.5,-46.1021 215.5,-46.1021"/>
<text text-anchor="middle" x="224.5" y="-58.3" font-family="Times,serif" font-size="14.00"> 0.1 </text>
</g>
<!-- lemonade -->
<g id="node4" class="node"><title>lemonade</title>
<text text-anchor="middle" x="370" y="-14.3" font-family="Times,serif" font-size="14.00">lemonade</text>
</g>
<!-- Cola Pref.&#45;&gt;lemonade -->
<g id="edge3" class="edge"><title>Cola Pref.&#45;&gt;lemonade</title>
<path fill="none" stroke="black" d="M254.341,-108.306C281.325,-87.4708 315.64,-60.9742 339.863,-42.2704"/>
<polygon fill="black" stroke="black" points="342.205,-44.8836 347.981,-36.0017 337.927,-39.3431 342.205,-44.8836"/>
<text text-anchor="middle" x="335.5" y="-58.3" font-family="Times,serif" font-size="14.00"> 0.3 </text>
</g>
</g>
</svg>
